<svg width="24" height="24" viewBox="0 0 24 24" fill="none" xmlns="http://www.w3.org/2000/svg">
<g clip-path="url(#clip0_3228_742)">
<circle cx="12" cy="12" r="12" fill="#F7CD46"/>
<path fill-rule="evenodd" clip-rule="evenodd" d="M11.995 2C17.4925 2 22 6.48387 22 11.9897C22 17.5084 17.4925 22 11.995 22C6.48348 22 2 17.5084 2 11.9897C2 6.48387 6.48348 2 11.995 2ZM10.6126 20.6405L14.8792 13.2357L11.995 13.2369L13.4273 10.7495H20.2026L18.7683 13.243L16.317 13.2357L11.995 20.7539C16.8098 20.7539 20.7547 16.8097 20.7547 11.9897C20.7547 7.18952 16.8098 3.25083 11.995 3.25083C11.6457 3.25083 11.2916 3.27126 10.9628 3.3155L6.66058 10.7495H11.995L10.5505 13.2357H3.78548L9.30445 3.68044C5.79265 4.82024 3.24396 8.12324 3.24396 11.9897C3.24396 16.3385 6.44212 19.9712 10.6126 20.6405Z" fill="#1F1A17"/>
</g>
<defs>
<clipPath id="clip0_3228_742">
<rect width="24" height="24" fill="white"/>
</clipPath>
</defs>
</svg>
