<svg width="24" height="24" viewBox="0 0 24 24" fill="none" xmlns="http://www.w3.org/2000/svg">
<rect width="24" height="24" rx="12" fill="#0A94D6"/>
<path fill-rule="evenodd" clip-rule="evenodd" d="M21.9687 7H22C21.6273 7.80539 21.265 8.61335 20.8923 9.41875C20.8845 9.0853 20.8793 8.74929 20.8767 8.41329C19.5866 9.40849 18.2938 10.4011 17.0063 11.3989C17.2826 11.9991 17.3921 12.6737 17.3035 13.3277C17.2018 14.1203 16.8135 14.859 16.2844 15.4592C15.6563 16.1723 14.8457 16.7109 13.983 17.1085C12.8623 17.6189 11.6426 17.8959 10.4124 17.9754C9.02587 18.0652 7.61847 17.9113 6.29708 17.4778C5.28584 17.1418 4.3189 16.6442 3.52398 15.9363C2.86198 15.3489 2.32509 14.5974 2.10876 13.7381C1.90026 12.943 1.99669 12.0786 2.35376 11.3373C2.79422 10.4139 3.56568 9.67781 4.43358 9.1366C5.4344 8.51332 6.57595 8.12088 7.73836 7.91569C9.12751 7.67715 10.561 7.69767 11.9423 7.98238C13.0396 8.21322 14.1081 8.61592 15.0464 9.23151C15.7214 9.67524 16.3235 10.2395 16.7535 10.9192C17.9915 9.95995 19.2321 9.00322 20.4701 8.04393C20.0583 8.01828 19.6456 7.99178 19.2321 7.96442C20.1443 7.64124 21.0591 7.33088 21.9687 7ZM6.16155 8.73134C5.25717 9.05709 4.39188 9.5316 3.68818 10.1857C3.19559 10.6474 2.7864 11.2116 2.56747 11.8503C2.372 12.4197 2.34073 13.043 2.48668 13.6278C2.62481 14.1921 2.91672 14.7102 3.29463 15.154C3.9019 15.867 4.70724 16.3954 5.5621 16.7801C6.71669 17.2957 7.98074 17.5548 9.2448 17.6035C10.5766 17.6522 11.9215 17.4701 13.1751 17.0213C14.1342 16.675 15.049 16.1646 15.771 15.4438C16.3417 14.8744 16.7822 14.1485 16.9021 13.3482C16.9933 12.7686 16.9073 12.1684 16.6806 11.6246C16.5398 11.7195 16.4147 11.8349 16.2766 11.935C16.2479 11.9529 16.2166 11.9863 16.1828 11.9606C16.1228 11.8118 16.0524 11.6682 15.9951 11.522L15.9977 11.5194L15.9951 11.5143C16.1437 11.3963 16.2948 11.2809 16.446 11.1629C15.8518 10.1882 14.8848 9.488 13.8527 9.01092C12.6903 8.47485 11.4132 8.20809 10.1362 8.15166C8.7913 8.0978 7.42821 8.27734 6.16155 8.73134Z" fill="white"/>
<path d="M7.26203 9.24478C8.42572 8.98262 9.64011 8.93407 10.8266 9.08457C11.9219 9.22536 13.0019 9.54092 13.9526 10.0895C14.6422 10.49 15.2634 11.0265 15.6563 11.711L15.6589 11.7159L15.6563 11.7183C15.3419 11.9368 15.0428 12.1771 14.7335 12.4053C13.6788 13.199 12.6241 13.9952 11.5695 14.789C11.4604 14.8521 11.3286 14.8933 11.1993 14.8836C11.1055 14.8715 11.0878 14.7647 11.0979 14.6919C11.1461 14.3059 11.3362 13.9539 11.5542 13.6311C12.0689 12.8713 12.6469 12.1552 13.1844 11.4125C13.2656 11.2959 13.3771 11.1867 13.3923 11.0411C13.3999 10.9027 13.296 10.7959 13.2225 10.6867C13.1464 10.5726 13.0678 10.4439 12.9309 10.3954C12.8041 10.3517 12.6774 10.4221 12.5886 10.5046C11.6633 11.3809 10.7404 12.262 9.81251 13.1359C9.93674 12.9199 10.0787 12.7111 10.2004 12.4926C10.3272 12.279 10.421 12.0509 10.5452 11.8348C10.6846 11.5678 10.8621 11.2959 10.8697 10.9877C10.8697 10.8105 10.8444 10.6114 10.6973 10.4852C10.5579 10.3614 10.3475 10.3565 10.1751 10.4075C9.89364 10.49 9.65786 10.6721 9.4525 10.8687C8.95052 11.3809 8.45107 11.8955 7.94909 12.4077C8.07332 11.9902 8.26853 11.5945 8.37248 11.1721C8.38769 11.0945 8.40544 11.0144 8.38008 10.9367C8.31417 10.7109 8.16205 10.5216 7.99472 10.3517C7.93895 10.2861 7.84007 10.2813 7.75894 10.291C7.60429 10.3128 7.45978 10.3711 7.3178 10.4294C6.77526 10.6672 6.25552 10.9537 5.69269 11.1527C5.80171 11.0532 5.92087 10.9561 5.99946 10.8323C6.01974 10.7959 6.0451 10.7498 6.02481 10.7085C5.98171 10.6624 5.91073 10.6842 5.86002 10.6988C5.64199 10.7716 5.49241 10.9464 5.32254 11.0848C5.15268 11.2158 5.03352 11.4003 4.96253 11.5945C4.90676 11.813 4.85859 12.0339 4.80535 12.2499C4.79013 12.3154 4.76985 12.398 4.82816 12.4514C4.89662 12.5121 5.00056 12.4975 5.08423 12.4805C5.32254 12.4271 5.53043 12.3009 5.73833 12.1868C6.19214 11.9392 6.64089 11.6867 7.09724 11.4416C7.24682 11.3712 7.41414 11.2765 7.58908 11.3129C7.74373 11.3736 7.7057 11.5654 7.67528 11.6892C7.54598 12.1285 7.28992 12.5242 7.01864 12.8932C6.55215 13.483 6.08312 14.0729 5.61663 14.6603C5.5786 14.7137 5.5279 14.7598 5.50255 14.8205C5.50255 15.0584 5.56846 15.2987 5.69269 15.5075C5.76622 15.6264 5.87523 15.7478 6.02988 15.7624C6.17439 15.7721 6.29355 15.6725 6.37722 15.5706C6.83103 14.9055 7.32034 14.2622 7.79697 13.6117C7.98965 13.335 8.22797 13.0922 8.446 12.8349C8.78319 12.4587 9.09503 12.0581 9.46265 11.7086C9.54377 11.6382 9.61983 11.5508 9.73392 11.5338C9.73899 11.66 9.67054 11.7741 9.61983 11.8858C9.19137 12.7135 8.63615 13.4733 8.1012 14.2404C7.96176 14.4491 7.76401 14.6312 7.69556 14.8764C7.62204 15.1239 7.69556 15.3861 7.80204 15.6143C7.84514 15.7017 7.89078 15.8036 7.98965 15.8449C8.07332 15.8764 8.16205 15.8352 8.22797 15.7866C8.37501 15.6774 8.47642 15.522 8.59305 15.3813C8.93277 14.9751 9.2725 14.5681 9.61223 14.1603C10.1649 13.466 10.8799 12.9126 11.5314 12.3057C11.2221 12.7475 10.8976 13.1845 10.6289 13.6505C10.4184 14.0171 10.2258 14.403 10.1598 14.8205C10.1066 15.1409 10.1548 15.4832 10.3246 15.7672C10.3931 15.874 10.5351 15.9056 10.6568 15.9056C10.9154 15.9031 11.1613 15.8085 11.3869 15.6944C11.5973 15.5876 11.79 15.4541 11.9726 15.306C13.2656 14.2598 14.5611 13.216 15.8541 12.1698C15.849 12.1601 15.8439 12.1431 15.8389 12.1334C15.8718 12.1577 15.9022 12.1261 15.9301 12.1091C15.9073 12.1431 15.8896 12.1795 15.8718 12.2183C16.1051 12.8907 16.0113 13.6481 15.6614 14.2719C15.4408 14.6773 15.1264 15.0317 14.769 15.3376C14.1453 15.8667 13.3974 16.243 12.614 16.51C11.3971 16.9178 10.0914 17.0586 8.80601 16.9785C7.61189 16.8959 6.42285 16.6192 5.36311 16.0803C4.65323 15.7187 3.99659 15.2308 3.53771 14.5923C3.23855 14.17 3.03826 13.6772 3.0053 13.165C2.96981 12.6359 3.11432 12.1043 3.38559 11.6455C3.66447 11.1721 4.06505 10.7716 4.51379 10.4415C5.32001 9.8492 6.27834 9.47053 7.26203 9.24478Z" fill="white"/>
</svg>
