<svg id="svg" version="1.1" xmlns="http://www.w3.org/2000/svg" xmlns:xlink="http://www.w3.org/1999/xlink" width="400" height="424.22802850356294" viewBox="0, 0, 400,424.22802850356294"><g id="svgg"><path id="path0" d="M87.427 0.642 C 85.028 5.823,83.029 16.394,82.741 25.416 C 82.132 44.514,89.568 65.857,102.485 82.084 C 103.012 82.747,103.711 83.647,104.038 84.084 C 104.365 84.520,105.088 85.382,105.645 85.998 C 106.201 86.613,106.891 87.424,107.177 87.799 C 110.055 91.571,121.465 102.263,125.463 104.935 C 127.735 106.453,129.199 107.330,130.760 108.110 C 133.737 109.596,135.555 110.451,135.736 110.451 C 135.834 110.451,136.251 110.606,136.662 110.795 C 138.999 111.869,144.837 113.571,153.444 115.687 C 166.489 118.894,181.219 123.354,188.005 126.150 C 188.266 126.258,189.478 126.724,190.699 127.186 C 191.919 127.649,193.256 128.184,193.668 128.377 C 194.539 128.783,197.046 129.454,197.693 129.454 C 198.778 129.454,197.115 126.147,194.789 123.679 C 193.059 121.842,187.308 117.218,184.772 115.624 C 184.431 115.410,184.004 115.093,183.822 114.920 C 183.640 114.747,181.781 113.474,179.691 112.091 C 158.165 97.850,146.368 89.707,143.079 86.817 C 142.930 86.686,142.249 86.152,141.566 85.629 C 139.937 84.384,137.285 82.209,135.531 80.679 C 134.758 80.005,133.808 79.218,133.421 78.930 C 131.342 77.385,120.887 67.180,118.171 64.044 C 117.518 63.290,116.673 62.333,116.295 61.918 C 112.088 57.309,105.459 48.004,101.713 41.449 C 99.940 38.346,96.439 31.383,96.436 30.952 C 96.435 30.846,96.266 30.439,96.060 30.048 C 95.048 28.121,92.256 20.234,91.309 16.627 C 91.120 15.909,90.923 15.160,90.871 14.964 C 90.089 12.031,89.035 6.908,88.719 4.513 C 88.222 0.737,87.871 -0.315,87.427 0.642 M0.150 39.014 C -0.886 42.878,1.704 60.785,4.039 65.914 C 4.158 66.176,4.623 67.352,5.071 68.527 C 7.634 75.244,12.546 83.395,17.379 88.951 C 22.784 95.164,27.085 99.287,32.594 103.537 C 35.535 105.806,42.221 110.325,43.004 110.574 C 43.259 110.655,43.468 110.821,43.468 110.942 C 43.468 111.064,43.571 111.164,43.697 111.164 C 43.823 111.164,44.946 111.752,46.192 112.472 C 53.129 116.477,65.296 121.354,75.178 124.092 C 76.876 124.563,78.640 125.052,79.097 125.179 C 86.889 127.352,101.534 129.995,114.014 131.480 C 114.602 131.549,115.404 131.660,115.796 131.725 C 117.562 132.019,131.263 133.365,140.974 134.199 C 143.979 134.456,147.559 134.776,148.931 134.909 C 150.303 135.042,152.601 135.262,154.038 135.398 C 178.009 137.658,196.696 143.977,205.226 152.706 C 207.037 154.560,208.551 156.241,208.551 156.399 C 208.551 156.471,208.913 157.039,209.355 157.660 C 212.644 162.275,214.336 169.564,213.604 175.963 C 213.440 177.399,213.323 177.121,212.937 174.367 C 212.601 171.975,212.091 169.653,211.602 168.290 C 205.848 152.257,191.290 144.071,161.758 140.261 C 160.255 140.067,158.224 139.804,157.245 139.675 C 155.236 139.412,154.656 139.353,149.169 138.845 C 147.013 138.645,144.822 138.433,144.299 138.373 C 143.777 138.313,141.853 138.152,140.024 138.014 C 138.195 137.876,135.629 137.655,134.323 137.523 C 133.017 137.392,129.917 137.125,127.435 136.932 C 122.687 136.562,120.851 136.384,113.895 135.625 C 108.775 135.065,104.993 134.582,101.781 134.078 C 100.475 133.872,98.337 133.539,97.031 133.337 C 94.423 132.934,85.655 131.235,84.327 130.876 C 83.868 130.752,81.942 130.266,80.048 129.797 C 78.153 129.327,75.534 128.619,74.228 128.224 C 72.922 127.829,71.532 127.420,71.140 127.315 C 70.378 127.110,65.010 125.207,61.876 124.031 C 50.419 119.729,35.414 111.150,26.941 104.056 C 26.540 103.720,25.793 103.124,25.282 102.732 C 24.772 102.340,24.138 101.800,23.875 101.532 C 23.612 101.264,22.488 100.285,21.378 99.356 C 18.386 96.852,13.314 91.528,9.735 87.133 C 5.928 82.459,6.212 82.783,6.058 82.936 C 5.637 83.358,9.606 95.601,11.860 100.831 C 11.973 101.093,12.302 101.894,12.593 102.613 C 18.059 116.144,28.776 130.093,39.311 137.387 C 41.883 139.168,47.030 142.280,47.402 142.280 C 47.568 142.280,47.740 142.362,47.783 142.463 C 47.860 142.639,51.853 144.482,54.751 145.679 C 61.137 148.315,72.541 150.908,80.998 151.645 C 90.272 152.455,103.133 152.609,116.865 152.075 C 124.084 151.795,125.976 151.698,129.572 151.428 C 137.459 150.836,156.698 150.833,161.876 151.424 C 162.399 151.483,163.521 151.586,164.371 151.651 C 169.669 152.061,178.031 153.727,182.907 155.344 C 184.456 155.858,184.715 155.956,186.223 156.602 C 186.681 156.798,187.643 157.204,188.361 157.506 C 189.990 158.188,191.975 159.250,193.273 160.133 C 193.819 160.504,194.336 160.808,194.420 160.808 C 194.724 160.808,198.748 164.354,199.828 165.574 C 201.617 167.594,202.963 170.531,203.413 173.397 L 203.544 174.228 203.008 173.159 C 200.097 167.358,194.306 163.739,185.154 162.006 C 175.327 160.145,163.381 160.611,151.188 163.331 C 150.926 163.389,150.285 163.528,149.762 163.640 C 149.240 163.752,148.224 163.976,147.506 164.139 C 145.730 164.541,137.828 166.585,135.629 167.212 C 134.650 167.491,132.939 167.973,131.829 168.282 C 130.719 168.592,128.848 169.116,127.672 169.446 C 105.115 175.787,88.913 177.739,79.097 175.299 C 78.640 175.185,77.625 174.969,76.841 174.818 C 72.963 174.071,67.771 172.327,63.777 170.428 C 60.778 169.003,60.390 168.962,61.342 170.172 C 78.338 191.770,98.398 197.836,125.297 189.512 C 129.523 188.204,138.670 184.673,143.416 182.517 C 144.105 182.204,144.714 181.948,144.767 181.948 C 144.821 181.948,145.786 181.520,146.912 180.998 C 148.038 180.475,149.015 180.048,149.084 180.048 C 149.198 180.048,151.649 179.018,153.325 178.266 C 153.717 178.091,154.626 177.722,155.344 177.447 C 156.063 177.172,156.865 176.849,157.126 176.729 C 165.759 172.776,179.465 170.030,185.026 171.139 C 192.634 172.656,196.792 179.366,193.072 184.124 C 191.197 186.522,189.053 186.901,177.910 186.804 C 165.871 186.699,160.371 187.200,151.781 189.184 C 148.920 189.844,145.650 190.888,141.924 192.331 C 140.460 192.898,136.667 194.896,134.859 196.052 C 134.120 196.525,133.419 196.912,133.302 196.912 C 133.186 196.912,132.897 197.126,132.660 197.387 C 132.424 197.648,132.133 197.862,132.014 197.862 C 131.895 197.862,131.447 198.129,131.019 198.456 C 130.591 198.783,130.177 199.050,130.099 199.050 C 130.022 199.050,129.256 199.531,128.398 200.119 C 127.539 200.707,126.739 201.188,126.621 201.188 C 126.502 201.188,126.370 201.274,126.326 201.379 C 126.205 201.671,121.752 204.276,119.477 205.385 C 114.855 207.638,114.281 207.840,109.026 209.058 C 103.890 210.249,95.841 208.807,86.342 204.992 C 76.687 201.115,73.611 200.658,58.789 200.903 C 51.368 201.025,47.319 199.668,45.285 196.379 C 42.949 192.600,44.940 189.256,49.957 188.531 C 52.417 188.176,52.565 187.894,50.581 187.338 C 44.506 185.637,38.264 189.196,37.830 194.611 C 37.659 196.736,38.761 200.950,39.488 200.950 C 39.587 200.950,39.667 201.063,39.667 201.202 C 39.667 201.718,41.700 203.596,43.093 204.366 C 46.424 206.207,49.774 206.702,55.142 206.147 C 61.065 205.535,63.083 205.757,64.100 207.132 L 64.609 207.821 64.074 208.125 C 63.707 208.333,62.683 208.410,60.808 208.371 C 50.443 208.152,44.524 211.112,37.402 220.071 C 36.364 221.378,35.460 222.500,35.394 222.565 C 35.327 222.631,34.743 223.379,34.095 224.228 C 33.447 225.077,32.859 225.825,32.788 225.891 C 32.718 225.956,32.273 226.490,31.800 227.078 C 26.717 233.389,20.840 235.874,16.419 233.580 C 13.890 232.269,13.106 230.688,13.422 227.541 C 13.612 225.646,13.587 225.627,12.270 226.663 C 5.994 231.598,4.213 238.230,8.430 240.966 C 11.487 242.949,15.687 242.888,22.342 240.763 C 25.516 239.750,25.313 239.662,24.607 241.738 C 19.286 257.383,27.381 271.091,43.943 274.478 C 53.322 276.397,63.304 271.980,66.383 264.549 C 66.900 263.302,66.657 263.423,64.442 265.516 C 54.159 275.233,38.540 269.380,35.743 254.760 C 33.117 241.035,42.043 229.888,57.720 227.316 C 58.569 227.177,59.584 227.000,59.976 226.924 L 60.689 226.785 60.095 227.249 C 59.454 227.750,56.264 229.545,52.219 231.682 C 44.610 235.701,41.469 240.946,43.244 246.670 C 46.450 257.009,63.546 255.919,65.462 245.252 L 65.632 244.305 64.704 245.002 C 64.194 245.386,63.723 245.768,63.658 245.852 C 63.489 246.068,61.023 247.740,60.840 247.762 C 60.757 247.772,60.475 247.839,60.214 247.912 C 54.413 249.531,50.406 245.207,52.216 239.281 C 54.439 232.001,60.634 230.212,73.872 233.027 C 84.672 235.323,90.416 235.030,96.200 231.887 C 97.534 231.162,98.439 230.574,101.040 228.742 C 102.694 227.577,106.265 224.018,110.224 219.588 C 110.688 219.070,111.464 218.277,111.949 217.825 L 112.832 217.004 112.251 218.656 C 111.932 219.565,111.253 221.164,110.743 222.209 C 109.885 223.968,108.756 226.794,106.900 231.829 C 106.491 232.939,106.063 234.062,105.950 234.323 C 105.836 234.584,105.365 235.762,104.902 236.939 C 100.100 249.175,94.114 257.060,85.036 263.107 C 83.503 264.128,81.550 265.255,78.924 266.632 C 77.929 267.155,75.379 268.267,73.515 268.991 C 67.532 271.318,65.237 273.084,64.051 276.275 C 63.551 277.617,63.497 277.874,63.056 280.998 C 61.085 294.937,55.501 306.751,49.282 310.134 C 47.979 310.843,47.226 310.946,42.951 310.999 C 38.299 311.057,38.531 310.905,35.867 315.609 C 31.153 323.932,27.051 328.112,19.724 332.062 C 16.226 333.947,15.325 335.396,16.978 336.479 C 20.491 338.781,50.575 328.260,63.183 320.321 C 73.749 313.667,82.219 306.422,88.717 298.478 C 89.240 297.840,89.782 297.199,89.922 297.055 C 90.247 296.719,92.644 293.581,93.112 292.877 C 93.308 292.582,93.575 292.218,93.705 292.069 C 93.836 291.919,94.626 290.890,95.461 289.782 C 99.345 284.628,105.751 280.099,114.846 276.074 C 118.200 274.590,118.675 274.384,120.190 273.755 C 122.169 272.933,122.805 272.655,124.763 271.757 C 125.645 271.352,126.426 271.021,126.498 271.021 C 126.570 271.021,127.105 270.808,127.685 270.546 C 128.266 270.285,129.249 269.845,129.869 269.568 C 136.707 266.515,143.668 262.984,146.976 260.888 C 147.665 260.452,148.272 260.095,148.325 260.095 C 148.656 260.095,156.030 254.928,157.697 253.528 C 160.839 250.890,165.251 246.611,167.223 244.288 C 169.175 241.991,171.734 238.283,171.734 237.753 C 171.734 237.206,167.045 236.580,162.952 236.580 C 157.170 236.580,155.929 237.251,148.607 244.338 C 144.604 248.212,140.318 251.876,137.654 253.703 C 136.131 254.747,136.120 254.755,135.239 255.460 C 134.828 255.788,134.411 256.057,134.311 256.057 C 134.212 256.057,133.780 256.324,133.352 256.651 C 132.924 256.977,132.505 257.245,132.422 257.245 C 132.339 257.245,131.805 257.565,131.235 257.957 C 130.666 258.349,130.143 258.670,130.075 258.670 C 130.006 258.670,129.384 259.004,128.692 259.413 C 126.716 260.581,122.382 262.803,120.428 263.650 C 119.448 264.075,118.325 264.564,117.933 264.738 C 113.866 266.539,105.458 269.501,100.119 271.014 C 99.074 271.310,97.521 271.807,96.670 272.118 C 95.818 272.429,95.045 272.684,94.952 272.684 C 94.548 272.684,92.208 274.372,91.449 275.211 C 90.322 276.457,89.816 277.446,88.251 281.473 C 87.514 283.367,86.820 285.131,86.709 285.392 C 86.353 286.226,83.606 291.787,83.306 292.280 C 82.457 293.673,80.422 296.742,80.185 296.986 C 80.035 297.141,79.595 297.692,79.208 298.210 C 77.641 300.306,71.108 306.176,70.342 306.176 C 70.215 306.176,70.075 306.267,70.032 306.378 C 69.927 306.645,68.365 307.533,65.385 309.019 C 62.990 310.214,61.902 310.664,59.917 311.279 L 58.908 311.592 59.442 310.860 C 61.345 308.250,61.935 307.379,63.819 304.394 C 64.974 302.565,66.061 300.814,66.236 300.502 C 66.410 300.190,66.771 299.549,67.037 299.077 C 67.742 297.827,71.259 290.777,71.259 290.615 C 71.259 290.125,74.552 283.764,75.477 282.468 C 76.961 280.388,79.013 278.212,80.701 276.929 C 81.452 276.359,82.120 275.832,82.185 275.760 C 83.510 274.282,91.721 270.878,99.644 268.522 C 111.262 265.066,120.984 261.087,127.859 256.973 C 129.137 256.208,130.237 255.582,130.303 255.582 C 130.369 255.582,130.713 255.382,131.067 255.138 C 131.421 254.895,132.667 254.066,133.836 253.298 C 138.072 250.514,141.906 247.334,147.025 242.358 C 150.643 238.842,151.046 238.484,152.850 237.183 C 158.353 233.215,159.831 233.095,175.059 235.371 C 194.308 238.249,210.948 237.856,225.708 234.175 C 231.688 232.684,238.258 230.408,241.924 228.559 C 244.288 227.366,247.541 226.482,252.613 225.654 C 257.330 224.884,266.286 222.421,272.869 220.084 C 277.979 218.269,287.968 213.741,292.874 211.015 C 296.816 208.825,303.553 204.828,304.172 204.313 C 304.311 204.197,304.685 203.966,305.003 203.800 C 305.321 203.634,306.918 202.622,308.551 201.552 C 310.184 200.481,312.749 198.800,314.252 197.817 C 320.768 193.551,322.441 192.935,325.534 193.665 C 326.236 193.830,329.023 194.757,329.572 195.008 C 329.834 195.127,330.796 195.565,331.710 195.982 C 332.625 196.398,334.324 197.312,335.487 198.013 C 336.650 198.714,337.647 199.287,337.702 199.287 C 337.817 199.287,341.385 201.711,341.568 201.913 C 341.633 201.985,342.114 202.357,342.637 202.740 C 346.523 205.587,349.951 208.994,352.809 212.847 C 354.767 215.488,355.785 219.018,355.332 221.598 C 355.181 222.457,355.004 223.867,354.939 224.731 L 354.819 226.303 355.659 226.944 C 356.406 227.514,359.964 228.955,361.876 229.462 C 362.268 229.566,363.337 229.861,364.252 230.117 C 366.126 230.643,369.538 231.439,371.496 231.808 C 372.215 231.943,373.605 232.213,374.584 232.408 C 378.662 233.219,383.383 233.551,385.191 233.153 C 387.534 232.639,385.769 229.113,381.354 225.490 C 372.991 218.627,372.942 218.557,373.676 214.573 C 374.009 212.766,374.058 212.825,371.021 211.377 C 366.314 209.133,359.899 205.783,357.912 204.532 C 357.169 204.065,355.532 203.040,354.273 202.257 C 351.895 200.775,346.971 197.308,345.711 196.228 C 345.312 195.886,344.633 195.340,344.201 195.016 C 341.765 193.186,334.840 186.366,334.141 185.110 L 333.722 184.356 335.091 183.324 C 338.316 180.894,340.317 179.942,341.780 180.142 C 344.298 180.486,368.052 188.402,369.787 189.475 C 372.729 191.295,372.817 192.532,370.313 196.879 C 369.248 198.729,369.281 199.643,370.447 200.633 C 373.520 203.242,393.333 208.727,397.769 208.197 C 400.068 207.923,400.000 207.972,400.000 206.562 C 400.000 204.803,398.939 203.415,394.537 199.411 C 388.591 194.003,388.449 193.789,388.551 190.368 C 388.645 187.198,388.833 187.348,382.779 185.760 C 376.613 184.143,368.964 181.726,365.439 180.281 C 365.048 180.120,364.513 179.907,364.252 179.807 C 361.828 178.880,357.173 177.038,356.413 176.704 C 343.923 171.215,342.456 171.044,333.492 174.027 C 309.052 182.161,298.885 182.808,287.310 176.966 C 285.492 176.048,283.929 175.297,283.837 175.297 C 283.746 175.297,283.612 177.408,283.541 179.988 C 283.386 185.586,282.335 190.636,280.464 194.774 C 280.198 195.362,279.774 196.324,279.522 196.912 C 278.779 198.645,278.014 199.485,277.014 199.665 C 276.527 199.753,275.941 199.858,275.713 199.899 C 275.068 200.013,275.185 199.629,276.913 195.962 C 284.560 179.728,281.379 164.393,267.180 149.050 C 266.696 148.527,266.073 147.833,265.795 147.506 C 265.516 147.179,263.719 145.268,261.801 143.259 C 259.883 141.250,257.906 139.166,257.407 138.627 C 256.029 137.140,253.413 133.687,252.613 132.300 C 251.181 129.818,251.291 129.880,248.086 129.772 C 243.438 129.615,240.712 129.240,239.966 128.655 L 239.320 128.147 242.878 128.026 C 247.635 127.864,250.420 126.356,251.976 123.100 C 252.179 122.675,252.432 122.328,252.538 122.328 C 252.645 122.328,252.732 122.212,252.732 122.071 C 252.732 121.930,253.125 121.208,253.605 120.468 C 254.085 119.727,254.961 118.373,255.552 117.458 C 256.532 115.940,257.239 114.937,258.730 112.945 C 261.788 108.862,267.159 104.369,271.496 102.266 C 272.476 101.791,273.439 101.316,273.636 101.210 C 273.833 101.105,275.009 100.617,276.249 100.128 C 281.228 98.161,281.759 97.746,283.357 94.568 C 285.214 90.876,285.424 88.803,284.208 86.189 C 283.486 84.640,283.479 84.342,284.108 81.918 C 284.880 78.938,284.071 77.288,281.143 75.870 C 277.038 73.883,273.776 74.569,269.842 78.247 C 267.189 80.727,266.902 80.865,260.926 82.540 C 257.136 83.603,249.911 86.002,248.169 86.777 C 247.739 86.968,246.372 87.524,245.131 88.012 C 243.890 88.500,240.916 89.845,238.523 91.001 C 231.292 94.493,230.671 94.392,227.700 89.238 C 226.909 87.865,226.890 87.869,225.539 89.667 C 224.069 91.623,223.110 94.048,222.602 97.087 C 222.274 99.051,222.133 99.506,221.992 99.050 C 220.792 95.150,216.427 90.736,213.769 90.736 C 213.557 90.736,214.076 92.282,214.869 94.016 C 216.456 97.486,216.900 103.249,215.804 106.168 C 213.520 112.257,210.214 114.915,204.869 114.960 C 202.827 114.977,202.709 115.122,203.593 116.522 C 204.001 117.168,204.402 117.749,204.483 117.815 C 204.969 118.203,208.130 121.925,208.820 122.922 C 210.586 125.469,210.858 128.186,209.476 129.477 C 208.186 130.682,206.956 130.038,204.619 126.933 L 203.213 125.064 203.023 126.368 C 202.535 129.719,203.822 133.837,206.752 138.302 C 207.276 139.101,207.024 139.131,205.934 138.400 C 203.231 136.587,196.021 132.794,192.993 131.592 C 191.948 131.177,190.986 130.760,190.855 130.665 C 190.724 130.571,189.816 130.187,188.836 129.813 C 187.856 129.439,186.606 128.938,186.058 128.699 C 185.510 128.461,184.954 128.266,184.822 128.266 C 184.691 128.266,183.482 127.851,182.137 127.344 C 175.969 125.019,167.652 122.568,155.819 119.587 C 152.488 118.748,149.388 117.954,148.931 117.824 C 148.474 117.693,145.855 117.042,143.112 116.377 C 140.368 115.712,136.200 114.688,133.848 114.102 C 131.496 113.516,129.145 112.948,128.622 112.841 C 125.799 112.259,106.821 107.333,100.238 105.472 C 99.388 105.232,97.732 104.772,96.556 104.449 C 93.326 103.564,86.932 101.587,83.729 100.485 C 82.162 99.945,79.757 99.127,78.385 98.667 C 76.119 97.906,72.822 96.699,71.615 96.187 C 71.354 96.076,69.163 95.187,66.746 94.210 C 60.273 91.594,51.217 87.251,46.952 84.716 C 45.929 84.108,45.032 83.610,44.959 83.610 C 44.339 83.610,30.613 74.220,29.691 73.166 C 29.626 73.091,28.931 72.498,28.148 71.847 C 27.364 71.197,26.242 70.225,25.654 69.687 C 25.065 69.149,24.157 68.349,23.634 67.909 C 22.245 66.740,16.938 61.372,15.558 59.741 C 14.905 58.969,13.993 57.898,13.532 57.362 C 12.300 55.928,12.211 55.820,11.097 54.394 C 9.169 51.925,4.976 45.931,4.452 44.893 C 4.353 44.697,4.004 44.109,3.676 43.587 C 3.348 43.064,2.973 42.423,2.844 42.162 C 2.714 41.900,2.368 41.305,2.076 40.838 C 1.783 40.372,1.334 39.650,1.077 39.235 C 0.524 38.340,0.342 38.297,0.150 39.014 M80.357 60.273 C 80.488 70.155,80.649 72.464,81.580 77.791 C 83.417 88.300,86.573 94.902,91.482 98.505 C 94.107 100.433,96.647 101.359,105.344 103.560 C 107.304 104.056,110.992 104.996,113.539 105.649 C 120.796 107.508,120.635 107.534,117.772 104.956 C 112.313 100.040,107.544 95.297,104.549 91.805 C 103.428 90.499,102.450 89.376,102.376 89.311 C 102.262 89.211,100.779 87.375,100.173 86.582 C 100.072 86.450,99.484 85.689,98.866 84.890 C 97.703 83.385,97.444 83.030,96.197 81.235 C 91.696 74.754,83.848 60.469,83.848 58.756 C 83.848 58.683,83.697 58.286,83.513 57.874 C 83.328 57.463,82.622 55.603,81.943 53.741 C 81.264 51.879,80.600 50.356,80.467 50.356 C 80.305 50.356,80.269 53.631,80.357 60.273 M250.462 92.989 C 250.234 95.341,248.541 97.274,244.753 99.511 C 243.328 100.352,241.377 101.616,240.418 102.320 C 238.522 103.710,238.254 103.748,238.725 102.561 C 240.341 98.487,244.376 94.337,248.219 92.795 C 250.334 91.945,250.561 91.965,250.462 92.989 M35.392 139.333 C 35.392 139.564,37.178 143.025,37.915 144.223 C 44.844 155.481,58.231 165.403,71.496 169.115 C 72.084 169.279,72.833 169.503,73.159 169.612 C 74.313 169.998,79.962 170.990,82.520 171.256 C 93.537 172.399,105.085 171.077,123.040 166.615 C 124.935 166.144,126.663 165.722,126.880 165.676 C 127.254 165.598,136.137 163.441,140.261 162.427 C 145.696 161.091,154.716 159.397,158.432 159.014 C 159.020 158.953,159.875 158.839,160.333 158.760 C 162.856 158.323,168.724 158.031,173.813 158.088 C 180.167 158.159,180.419 158.075,177.034 157.017 C 170.591 155.003,154.228 153.895,142.993 154.712 C 142.013 154.783,140.036 154.905,138.599 154.982 C 132.144 155.329,127.570 155.599,126.366 155.704 C 124.640 155.853,117.354 156.248,113.183 156.419 C 111.354 156.494,108.949 156.602,107.838 156.659 C 101.411 156.991,84.101 156.693,79.216 156.166 C 61.869 154.295,48.585 149.737,40.043 142.726 C 36.246 139.610,35.392 138.986,35.392 139.333 M242.874 162.478 C 242.874 162.499,243.141 162.543,243.468 162.574 C 243.795 162.605,244.489 162.718,245.012 162.826 C 245.534 162.934,246.092 163.048,246.250 163.080 C 257.178 165.292,267.911 176.710,269.266 187.567 C 269.812 191.938,269.056 200.666,268.178 200.123 C 268.062 200.051,267.899 200.101,267.817 200.234 C 267.735 200.366,267.195 200.475,266.616 200.475 L 265.565 200.475 265.679 199.109 C 265.742 198.358,265.847 197.476,265.913 197.150 C 266.647 193.474,266.521 191.216,265.281 185.891 C 264.117 180.889,260.619 174.733,257.037 171.383 C 256.370 170.759,255.896 170.131,255.980 169.983 C 256.064 169.836,256.045 169.795,255.938 169.892 C 255.776 170.039,254.336 169.150,253.919 168.646 C 253.043 167.587,247.723 164.765,244.062 163.417 C 241.732 162.560,241.114 162.208,242.186 162.348 C 242.564 162.397,242.874 162.456,242.874 162.478 M239.607 273.536 C 239.539 273.604,226.518 273.710,210.671 273.770 C 194.825 273.831,181.835 273.905,181.805 273.936 C 181.742 274.001,182.060 275.546,182.380 276.722 C 185.485 288.148,185.298 284.608,185.352 332.779 C 185.396 371.312,185.435 370.053,184.028 375.413 C 180.532 388.733,168.645 395.837,151.663 394.753 C 133.510 393.595,124.180 384.236,122.203 365.202 C 122.121 364.418,122.012 363.511,121.959 363.186 C 121.631 361.156,121.854 299.909,122.200 296.793 C 123.079 288.898,124.403 284.151,127.617 277.373 C 128.407 275.706,129.001 274.290,128.937 274.226 C 128.702 273.991,122.310 276.488,117.696 278.618 C 117.173 278.859,116.211 279.290,115.558 279.576 C 105.983 283.761,101.837 286.993,96.020 294.805 C 91.092 301.421,85.540 307.556,80.667 311.768 C 79.766 312.546,78.911 313.290,78.766 313.420 C 78.621 313.551,77.861 314.171,77.078 314.799 C 76.294 315.426,75.486 316.076,75.282 316.243 C 73.590 317.626,70.029 320.069,66.832 322.040 C 63.529 324.077,63.850 321.028,63.965 349.314 C 64.069 374.690,64.068 374.654,65.088 380.760 C 65.591 383.768,67.269 389.678,68.157 391.568 C 68.280 391.829,68.758 392.924,69.220 394.001 C 77.375 413.014,99.578 423.710,131.829 424.162 C 142.773 424.316,146.961 424.077,155.819 422.798 C 165.255 421.434,177.180 418.360,182.542 415.908 C 182.803 415.789,184.017 415.258,185.239 414.727 C 186.461 414.197,188.461 413.242,189.683 412.605 C 192.303 411.239,192.416 411.287,192.145 413.658 C 192.040 414.572,191.841 416.283,191.703 417.458 C 191.566 418.634,191.452 420.104,191.451 420.724 L 191.449 421.853 192.815 421.859 C 206.606 421.921,266.274 421.819,268.527 421.730 C 280.015 421.274,292.908 419.837,300.713 418.142 C 308.041 416.551,311.247 415.654,316.746 413.655 C 319.283 412.734,319.577 412.613,322.328 411.376 C 339.855 403.491,348.970 389.613,346.570 374.466 C 346.010 370.931,343.562 364.764,341.848 362.573 C 341.629 362.292,340.975 361.432,340.395 360.663 C 336.300 355.224,326.074 347.987,319.952 346.196 C 319.626 346.101,319.252 345.943,319.121 345.845 C 318.990 345.747,318.456 345.534,317.933 345.371 C 317.411 345.208,316.663 344.933,316.271 344.760 C 315.097 344.243,310.289 342.723,307.501 341.989 C 305.657 341.503,305.937 341.247,309.363 340.289 C 323.356 336.373,329.731 332.785,334.788 325.980 C 341.297 317.222,341.428 305.222,335.107 296.793 C 332.294 293.042,329.537 290.454,325.557 287.829 C 322.596 285.877,315.097 282.197,311.639 281.000 C 311.182 280.842,310.594 280.626,310.333 280.520 C 304.141 278.015,291.544 275.407,281.116 274.472 C 278.895 274.273,276.490 274.057,275.772 273.992 C 270.214 273.488,240.035 273.108,239.607 273.536 M252.910 298.639 C 253.596 298.644,254.157 298.717,254.157 298.800 C 254.157 298.883,254.745 298.933,255.463 298.910 C 256.182 298.888,256.770 298.937,256.770 299.019 C 256.770 299.102,257.064 299.186,257.423 299.207 C 258.656 299.276,260.690 299.553,261.758 299.797 C 262.346 299.931,263.067 300.087,263.362 300.144 C 275.445 302.471,281.886 312.303,277.298 321.414 C 276.464 323.069,273.981 325.986,273.604 325.753 C 273.483 325.679,273.414 325.727,273.450 325.861 C 273.761 327.018,265.699 330.875,261.045 331.797 C 257.586 332.482,256.941 332.581,255.641 332.625 C 255.086 332.645,254.632 332.728,254.632 332.811 C 254.632 332.894,254.231 332.973,253.741 332.986 C 252.638 333.016,250.208 333.145,246.251 333.383 L 243.214 333.565 243.258 316.129 L 243.301 298.694 244.156 298.532 C 244.627 298.443,246.508 298.429,248.337 298.500 C 250.166 298.572,252.224 298.634,252.910 298.639 M251.900 356.878 C 253.076 356.948,254.679 357.067,255.463 357.141 C 256.247 357.215,257.236 357.281,257.660 357.288 C 258.085 357.295,258.432 357.368,258.432 357.451 C 258.432 357.533,258.887 357.612,259.442 357.626 C 263.574 357.727,271.849 360.118,275.772 362.345 C 278.041 363.633,278.765 364.189,280.883 366.271 C 284.707 370.029,285.627 376.804,283.015 381.968 C 279.970 387.988,270.715 393.296,261.283 394.433 C 260.956 394.472,260.422 394.565,260.095 394.639 C 259.378 394.802,257.182 395.056,256.116 395.099 C 255.692 395.116,255.344 395.196,255.344 395.276 C 255.344 395.356,254.703 395.409,253.919 395.395 C 253.135 395.380,252.494 395.437,252.494 395.520 C 252.494 395.604,251.365 395.652,249.985 395.627 C 248.605 395.601,247.423 395.666,247.358 395.771 C 247.293 395.876,246.365 395.962,245.295 395.962 L 243.349 395.962 243.355 376.544 C 243.357 365.864,243.434 357.008,243.526 356.863 C 243.693 356.598,247.316 356.604,251.900 356.878 " stroke="none" fill="#244494" fill-rule="evenodd"></path><path id="path1" d="M241.706 97.810 L 241.250 98.456 241.884 97.880 C 242.550 97.275,242.632 97.145,242.340 97.157 C 242.242 97.161,241.956 97.455,241.706 97.810 M252.019 167.049 C 252.019 167.094,252.366 167.386,252.791 167.697 C 253.269 168.046,253.435 168.104,253.226 167.847 C 252.910 167.458,252.019 166.869,252.019 167.049 M257.126 171.259 C 257.636 171.781,258.107 172.209,258.172 172.209 C 258.238 172.209,257.874 171.781,257.363 171.259 C 256.853 170.736,256.382 170.309,256.317 170.309 C 256.252 170.309,256.616 170.736,257.126 171.259 M264.371 176.010 C 264.650 176.401,264.931 176.722,264.997 176.722 C 265.062 176.722,264.887 176.401,264.608 176.010 C 264.329 175.618,264.047 175.297,263.982 175.297 C 263.917 175.297,264.091 175.618,264.371 176.010 M265.974 200.168 C 266.268 200.224,266.749 200.224,267.043 200.168 C 267.337 200.111,267.096 200.065,266.508 200.065 C 265.920 200.065,265.680 200.111,265.974 200.168 M243.317 306.532 C 243.318 307.838,243.358 308.343,243.406 307.652 C 243.454 306.962,243.453 305.893,243.405 305.277 C 243.356 304.661,243.317 305.226,243.317 306.532 M274.641 324.624 C 274.476 324.690,274.221 324.976,274.074 325.258 C 273.824 325.739,273.847 325.735,274.433 325.196 C 274.778 324.879,275.059 324.585,275.059 324.543 C 275.059 324.456,275.056 324.457,274.641 324.624 M245.784 356.700 C 246.078 356.756,246.559 356.756,246.853 356.700 C 247.147 356.643,246.906 356.597,246.318 356.597 C 245.730 356.597,245.490 356.643,245.784 356.700 M243.324 360.926 C 243.324 362.755,243.362 363.472,243.407 362.519 C 243.452 361.566,243.452 360.070,243.406 359.194 C 243.361 358.318,243.324 359.097,243.324 360.926 M284.383 375.416 C 284.386 375.938,284.434 376.124,284.491 375.829 C 284.548 375.533,284.546 375.106,284.486 374.878 C 284.427 374.651,284.380 374.893,284.383 375.416 M243.306 392.162 C 243.306 393.011,243.350 393.358,243.402 392.933 C 243.455 392.509,243.455 391.814,243.402 391.390 C 243.350 390.965,243.306 391.312,243.306 392.162 M244.365 395.661 C 244.924 395.711,245.779 395.711,246.265 395.660 C 246.752 395.609,246.295 395.568,245.249 395.568 C 244.204 395.569,243.806 395.611,244.365 395.661 " stroke="none" fill="#3c569d" fill-rule="evenodd"></path><path id="path2" d="M246.147 298.512 C 246.772 298.561,247.734 298.561,248.285 298.511 C 248.836 298.461,248.325 298.421,247.150 298.422 C 245.974 298.422,245.523 298.463,246.147 298.512 M244.121 333.426 C 244.546 333.479,245.240 333.479,245.665 333.426 C 246.090 333.373,245.742 333.330,244.893 333.330 C 244.044 333.330,243.697 333.373,244.121 333.426 M244.240 395.897 C 244.730 395.949,245.531 395.949,246.021 395.897 C 246.511 395.846,246.110 395.804,245.131 395.804 C 244.151 395.804,243.750 395.846,244.240 395.897 " stroke="none" fill="#34549c" fill-rule="evenodd"></path><path id="path3" d="M269.351 78.563 L 268.052 79.929 269.418 78.630 C 270.687 77.424,270.893 77.197,270.716 77.197 C 270.679 77.197,270.065 77.812,269.351 78.563 M266.093 200.401 C 266.321 200.461,266.695 200.461,266.924 200.401 C 267.153 200.342,266.966 200.293,266.508 200.293 C 266.051 200.293,265.864 200.342,266.093 200.401 " stroke="none" fill="#2c4c9c" fill-rule="evenodd"></path><path id="path4" d="M196.632 273.812 C 200.724 273.849,207.351 273.849,211.359 273.812 C 215.367 273.776,212.019 273.746,203.919 273.746 C 195.819 273.746,192.540 273.776,196.632 273.812 M185.386 341.093 C 185.386 350.303,185.415 354.071,185.451 349.466 C 185.487 344.860,185.487 337.325,185.451 332.720 C 185.415 328.115,185.386 331.882,185.386 341.093 M185.328 358.670 C 185.328 359.127,185.377 359.314,185.437 359.086 C 185.497 358.857,185.497 358.483,185.437 358.254 C 185.377 358.026,185.328 358.213,185.328 358.670 M194.834 422.016 C 195.062 422.076,195.436 422.076,195.665 422.016 C 195.894 421.957,195.707 421.908,195.249 421.908 C 194.792 421.908,194.605 421.957,194.834 422.016 " stroke="none" fill="#2c4994" fill-rule="evenodd"></path></g></svg>