<?xml version="1.0" encoding="utf-8"?>
<!-- Generator: Adobe Illustrator 26.0.3, SVG Export Plug-In . SVG Version: 6.00 Build 0)  -->
<svg version="1.0" id="Layer_1" xmlns="http://www.w3.org/2000/svg" xmlns:xlink="http://www.w3.org/1999/xlink" x="0px" y="0px"
	 viewBox="0 0 560.9 401.5" style="enable-background:new 0 0 560.9 401.5;" xml:space="preserve">
<style type="text/css">
	.st0{fill:#003975;}
	.st1{fill:#ED1C24;}
	.st2{fill:#FAA61A;}
</style>
<g id="_003974ff">
	<path class="st0" d="M169,130.5h14.4c11.7,0.7,23.6,2.1,34.7,6.1c-1.1,10-2.1,20-3.1,30c-13.9-8-30.7-10.5-46.4-8
		c-10.1,1.6-20.3,4.8-28,11.8c-7.1,6.4-11.5,15.4-12.3,25c-1.6,12.8,1.3,26.8,10.6,36.2c6.9,7.4,16.8,11.4,26.7,12.8
		c6.9,0.8,14,0.8,20.6-1.7c-6,9.4-11.9,18.8-18,28.2c-7.6-0.6-15.4,0.8-22.9-1.3c-13.8-3.4-27.3-9.5-37.2-19.9
		c-11.2-11-16.8-26.6-18-42.1v-11.8c1-16.3,6.7-32.9,18.9-44.2C124.8,136.4,147.6,131.7,169,130.5z"/>
	<path class="st0" d="M359,134c20.2-0.1,40.5,0,60.7,0c9.5,0,19.4,0.6,28.2,4.6c19.1,9.2,27.1,35.1,17.6,53.8
		c-3.7,8.7-11.5,14.8-19.9,18.5c2.4,4.8,4.5,9.7,6.4,14.7c6.4,15.1,12.8,30.1,19,45.3h-35.8c-7-17.9-13.8-36-21-53.9
		c-7.7,0-15.3,0-23,0c0,18,0,35.9,0,53.9h-0.6c-10.2-18.1-21.4-35.6-31.7-53.7C358.9,189.6,358.9,161.8,359,134 M391.1,161.2v28.1
		c12.8,0.1,25.6-0.1,38.4,0.1c5.4-4.6,7.7-12,5.7-18.9c-1.5-3.7-3.5-7.5-7.2-9.4C415.8,161.2,403.5,161.1,391.1,161.2L391.1,161.2z"
		/>
	<path class="st0" d="M175.8,189.7c14.7-0.4,29.3-0.1,44-0.1c-5.3,8.6-10.9,17-16.2,25.7c-9.3-0.1-18.6,0.2-27.8-0.2
		C175.9,206.6,175.9,198.2,175.8,189.7z"/>
</g>
<g id="_ed1c24ff">
	<path class="st1" d="M219.8,189.6c11.4-17.9,22.9-35.7,34.1-53.7c9,14.8,17.9,29.7,26.6,44.7l1.4,2.5
		c-6.5,10.6-13.2,21.1-19.7,31.7c-2.7-4-4.9-8.3-7.4-12.5c-15.1,23-30.5,45.9-45.7,68.8H169h-0.9c6-9.4,11.9-18.8,18-28.2
		c5.8-9.2,11.6-18.4,17.6-27.5C208.9,206.6,214.5,198.2,219.8,189.6z"/>
	<path class="st1" d="M298.3,224.1c1.4-2.1,2.6-4.5,4.7-6c10.5,17.6,21.1,35.2,31.5,52.9h-40.4l1.1-0.2c-4.2-6.6-8.2-13.4-11.9-20.3
		c-0.2-0.4-0.5-1.3-0.6-1.7C287.7,240.4,293.2,232.4,298.3,224.1z"/>
</g>
<g id="_faab53ff">
	<path class="st2" d="M310.6,136.8c2.3,2.7,3.9,5.9,5.7,9c14.3,23.8,28.4,47.7,42.7,71.5c10.3,18.1,21.5,35.6,31.7,53.7h-39.1
		c-11.8-20-23.5-40.2-35.4-60.2c-1.3-2.6-2.9-5.2-4.7-7.6c-2,3.3-3.9,6.7-6.2,9.8c-1,1.6-2.5,3.1-2.3,5.1c-2.1,1.5-3.4,3.8-4.7,6
		c-5.1,8.3-10.6,16.3-15.6,24.6c0.2,0.4,0.5,1.3,0.6,1.7l-1.5-0.6c-4.5,7.1-9,14.1-13.4,21.2h-41.2c11.7-18.8,23.4-37.5,35.1-56.3
		c6.5-10.6,13.2-21.1,19.7-31.7l-1.4-2.5l2.1,1.8C291.6,166.9,301.7,152.2,310.6,136.8z"/>
</g>
</svg>
