<svg width="24" height="24" viewBox="0 0 24 24" fill="none" xmlns="http://www.w3.org/2000/svg">
<g clip-path="url(#clip0_3130_810)">
<circle cx="12" cy="12" r="12" fill="white"/>
<g clip-path="url(#clip1_3130_810)">
<path d="M13.5214 8.19826L11.7165 9.37747C15.6222 9.48548 18.2758 8.2913 18.2758 8.2913C15.4462 9.61048 12.4575 9.73022 11.2029 9.71282L9.05273 11.1182C9.05273 11.1182 15.7745 10.958 20.0529 7.00004C20.0529 7.00004 17.4086 8.87909 13.5214 8.19826Z" fill="#ED1C24"/>
<mask id="mask0_3130_810" style="mask-type:luminance" maskUnits="userSpaceOnUse" x="1" y="7" width="59" height="10">
<path d="M59.7521 7.00001H1V17H59.7521V7.00001Z" fill="white"/>
</mask>
<g mask="url(#mask0_3130_810)">
<path d="M21.6061 11.0922H21.4301C21.4301 11.0922 21.5103 11.2059 21.3989 11.3628L19.9083 13.3054L20.0885 11.4559C20.124 11.2188 20.319 11.0914 20.319 11.0914H19.6834V11.0922H18.0789L16.3807 13.3054L16.5597 11.468C16.5605 11.4664 16.5618 11.4648 16.5622 11.4627C16.5955 11.2225 16.7935 11.0934 16.7935 11.0934H16.5964V11.0926L14.5543 11.0922V11.0934C14.4479 11.0881 9.33019 10.8608 8.56466 12.1691C8.87906 11.5623 9.0926 11.1197 9.10526 11.1003H5.39113C5.43038 11.1116 5.6359 11.2176 5.56585 11.4033C5.37214 12.0364 4.90075 13.5028 4.37451 14.589C3.68536 16.0117 2.13193 16.5331 1.06551 16.8968C0.968026 16.93 0.983219 16.9987 1.08535 16.9992C3.70815 17.0157 5.8621 16.8143 7.49106 14.108C7.86876 13.4805 8.23971 12.7945 8.53048 12.235C8.51149 12.2767 8.4963 12.3195 8.48617 12.3644C8.15109 13.8244 10.9967 13.9178 10.9545 14.2661C10.9174 14.5736 9.22174 14.4793 8.10256 14.1262C8.0975 14.1246 8.09285 14.1221 8.08737 14.1201C7.87341 14.0521 7.78267 13.9312 7.78267 13.9312L7.79196 14.0149C7.79154 14.0149 7.79154 14.0145 7.79111 14.0145C7.79154 14.0149 7.79238 14.0202 7.79365 14.0275L7.8388 14.4166C7.88353 14.8268 7.94304 15.4049 7.94304 15.4049C7.94304 15.4049 13.8698 16.1229 13.9791 14.2763C14.0618 12.879 11.2073 12.7107 11.2385 12.4045C11.2676 12.1173 12.6573 12.0813 13.5001 12.201C13.5026 12.2018 13.5043 12.2022 13.5068 12.2026C13.8837 12.2593 13.9377 12.4542 13.9377 12.4542L13.9989 12.3183C13.9989 12.3187 13.9998 12.3187 13.9998 12.3187C14.001 12.3123 14.5095 11.197 14.5534 11.1003L14.1711 15.0165C14.1711 15.017 14.1711 15.017 14.1711 15.0174C14.1378 15.2576 13.9394 15.3871 13.9394 15.3871H14.3395L16.1769 15.3883L17.878 13.1715L17.6974 15.0198C17.6628 15.2585 17.4666 15.3871 17.4666 15.3871H17.6615V15.3879L19.7049 15.3871L23 11.0926L21.6061 11.0922Z" fill="#2744A0"/>
</g>
</g>
</g>
<defs>
<clipPath id="clip0_3130_810">
<rect width="24" height="24" fill="white"/>
</clipPath>
<clipPath id="clip1_3130_810">
<rect width="22" height="10" fill="white" transform="translate(1 7)"/>
</clipPath>
</defs>
</svg>
