<?xml version="1.0" encoding="UTF-8"?>
<svg version="1.1" xmlns="http://www.w3.org/2000/svg" width="300" height="136">
<path d="M0 0 C3.8094494 0.21673016 7.14527058 2.60369836 10.4375 4.375 C29.53478692 14.23150274 48.61156452 11.98443438 69 8 C68.05365371 12.87368338 65.5692859 17.1059543 63.375 21.515625 C60.57301616 28.61610678 60.86852248 35.96757567 60.70996094 43.50756836 C60.12375691 70.62287341 56.59856646 96.07999382 36.8203125 116.30859375 C30.25316484 122.57558092 22.98837165 126.74568452 14.83203125 130.640625 C12.35511594 131.82954435 9.96864687 133.11434579 7.5625 134.4375 C3.69421969 136.13411417 2.87963224 136.13379421 -1 135 C-3.140625 133.95605469 -3.140625 133.95605469 -5.25 132.671875 C-6.0234375 132.20136719 -6.796875 131.73085937 -7.59375 131.24609375 C-8.3878125 130.75238281 -9.181875 130.25867188 -10 129.75 C-10.7940625 129.27175781 -11.588125 128.79351562 -12.40625 128.30078125 C-16.83397804 125.5777285 -20.50898786 122.85700535 -24 119 C-20.840848 119 -19.87994998 119.41486552 -17.19921875 120.8984375 C-16.46896484 121.29546875 -15.73871094 121.6925 -14.98632812 122.1015625 C-14.22771484 122.52179688 -13.46910156 122.94203125 -12.6875 123.375 C-5.65390289 127.5554136 -5.65390289 127.5554136 2 130 C4.98288575 129.10555727 7.55916206 127.67365992 10.25 126.125 C11.00071777 125.70806885 11.75143555 125.2911377 12.52490234 124.86157227 C18.50652444 121.46054862 23.968646 117.71689438 29 113 C29.61875 112.43410156 30.2375 111.86820312 30.875 111.28515625 C44.21721459 97.6749061 48.92731986 76.30494528 49.28125 57.94140625 C49.29965942 57.1934227 49.31806885 56.44543915 49.33703613 55.67478943 C49.3952653 53.30409907 49.44828662 50.93334086 49.5 48.5625 C49.56829086 45.43867201 49.64196922 42.31503583 49.71875 39.19140625 C49.73232544 38.48907364 49.74590088 37.78674103 49.7598877 37.06312561 C49.87702157 32.31592269 50.34931753 27.70460546 51 23 C49.97003906 22.97421875 48.94007813 22.9484375 47.87890625 22.921875 C33.55539806 22.41426223 20.16104975 20.50805224 7.61328125 13.171875 C3.58356907 11.36482918 0.50585547 11.42881344 -3.60546875 12.98828125 C-4.45753906 13.42527344 -5.30960938 13.86226562 -6.1875 14.3125 C-20.84693559 21.28659806 -35.21563075 21.90259678 -51 19 C-50.7834375 20.10408203 -50.7834375 20.10408203 -50.5625 21.23046875 C-50.376875 22.20628906 -50.19125 23.18210937 -50 24.1875 C-49.814375 25.15042969 -49.62875 26.11335938 -49.4375 27.10546875 C-49.03122388 29.7934206 -48.92066428 32.28771019 -49 35 C-49.99 35 -50.98 35 -52 35 C-52.36351562 33.515 -52.36351562 33.515 -52.734375 32 C-54.5228918 24.89001598 -56.33451417 18.4146002 -60 12 C-58.36804688 12.23976563 -58.36804688 12.23976563 -56.703125 12.484375 C-37.23315023 14.89885736 -19.99945441 12.95973361 -3 3 C-2.45472656 2.4121875 -1.90945312 1.824375 -1.34765625 1.21875 C-0.68056641 0.61546875 -0.68056641 0.61546875 0 0 Z " fill="#9DBCE2" transform="translate(231,0)"/>
<path d="M0 0 C15.18 0 30.36 0 46 0 C46 3.63 46 7.26 46 11 C41.91255255 11.81748949 38.71390095 12.11712749 34.60546875 12.09765625 C33.40341797 12.09443359 32.20136719 12.09121094 30.96289062 12.08789062 C29.71701172 12.07951172 28.47113281 12.07113281 27.1875 12.0625 C25.92228516 12.05798828 24.65707031 12.05347656 23.35351562 12.04882812 C20.2356568 12.03706262 17.11782235 12.01912774 14 12 C14 16.62 14 21.24 14 26 C16.49433594 25.98259766 16.49433594 25.98259766 19.0390625 25.96484375 C21.23437387 25.95546208 23.42968647 25.94636228 25.625 25.9375 C26.71941406 25.92912109 27.81382813 25.92074219 28.94140625 25.91210938 C30.53662109 25.90727539 30.53662109 25.90727539 32.1640625 25.90234375 C33.62513428 25.89448853 33.62513428 25.89448853 35.11572266 25.88647461 C38.14875321 26.00585494 41.01915268 26.44133276 44 27 C44 30.63 44 34.26 44 38 C33.77 38 23.54 38 13 38 C13 42.95 13 47.9 13 53 C14.56234375 52.98259766 14.56234375 52.98259766 16.15625 52.96484375 C26.14904562 52.88971877 36.03615326 53.24902366 46 54 C46 57.63 46 61.26 46 65 C30.82 65 15.64 65 0 65 C0 43.55 0 22.1 0 0 Z " fill="#1B2B60" transform="translate(76,37)"/>
<path d="M0 0 C1.31581055 -0.00483398 1.31581055 -0.00483398 2.65820312 -0.00976562 C8.85413437 0.04045932 14.5202693 0.94742358 20.5625 2.3125 C20.5625 6.6025 20.5625 10.8925 20.5625 15.3125 C18.5 14.8175 16.4375 14.3225 14.3125 13.8125 C5.28170154 11.88580791 -3.67436237 10.88344615 -12.4375 14.3125 C-14.84570361 16.72070361 -15.11847423 17.96272937 -15.4375 21.3125 C-14.95367907 23.61386062 -14.95367907 23.61386062 -13.4375 25.3125 C-8.06860374 26.89281839 -2.20597035 26.58852442 3.34960938 26.65429688 C9.138312 26.85263489 13.74996985 27.9712576 18.5625 31.3125 C22.82275738 36.5558937 23.88083382 40.52955029 23.78125 47.2265625 C23.20804745 52.69245828 20.44059911 57.53645613 16.5625 61.3125 C9.50696727 65.70467285 2.68306038 65.89434482 -5.4375 65.75 C-6.5615625 65.75708984 -7.685625 65.76417969 -8.84375 65.77148438 C-15.6745044 65.71961533 -21.0895588 64.84764177 -27.4375 62.3125 C-27.4375 58.6825 -27.4375 55.0525 -27.4375 51.3125 C-26.60089844 51.456875 -25.76429688 51.60125 -24.90234375 51.75 C-8.42202945 54.55858042 -8.42202945 54.55858042 7.5625 51.3125 C9.07106863 47.91822059 9.80347655 45.62065842 9.125 41.9375 C5.69189627 38.36707212 -0.93471167 39.21446563 -5.69262695 39.07348633 C-12.80660037 38.83393985 -18.50261324 38.61820216 -24.4375 34.3125 C-29.08928675 28.46794742 -30.07998979 23.57384686 -29.4375 16.3125 C-27.72989178 10.38609502 -24.7160781 6.4259664 -19.4375 3.3125 C-12.9501893 0.46225725 -7.02442138 -0.12846418 0 0 Z " fill="#263568" transform="translate(246.4375,36.6875)"/>
<path d="M0 0 C4.62 0 9.24 0 14 0 C20.26956285 13.02666586 26.20998737 26.1643975 31.9375 39.4375 C33.06805133 42.05097917 34.19952971 44.66405145 35.33216858 47.27662659 C36.02693365 48.87982162 36.7204001 50.48358028 37.41233826 52.08799744 C37.72349075 52.8071785 38.03464325 53.52635956 38.35522461 54.26733398 C38.62564072 54.89397446 38.89605682 55.52061493 39.17466736 56.16624451 C39.76735628 57.48310331 40.41756863 58.77462785 41.10279846 60.04579163 C42 62 42 62 42 65 C37.38 65 32.76 65 28 65 C25.56875006 59.68963829 23.16925333 54.42313332 21 49 C10.11 48.505 10.11 48.505 -1 48 C2 39 2 39 3 37 C5.88211302 36.03929566 7.69850044 35.89418117 10.6875 35.9375 C11.89986328 35.95103516 11.89986328 35.95103516 13.13671875 35.96484375 C13.75160156 35.97644531 14.36648437 35.98804688 15 36 C14.2330666 33.95686516 13.46126798 31.91555628 12.6875 29.875 C12.25824219 28.73804687 11.82898437 27.60109375 11.38671875 26.4296875 C10.07627928 23.18865692 8.60780709 20.10245474 7 17 C1.16318392 29.63922889 -4.28062514 42.40122174 -9.45629883 55.32348633 C-9.90384521 56.43747803 -10.3513916 57.55146973 -10.8125 58.69921875 C-11.21082031 59.69783936 -11.60914063 60.69645996 -12.01953125 61.7253418 C-13 64 -13 64 -14 65 C-16.18639453 65.07258946 -18.37500389 65.08373783 -20.5625 65.0625 C-21.76003906 65.05347656 -22.95757812 65.04445313 -24.19140625 65.03515625 C-25.58166016 65.01775391 -25.58166016 65.01775391 -27 65 C-26.39211892 61.46543154 -25.45524601 58.40001493 -24.03808594 55.10888672 C-23.63386414 54.16375214 -23.22964233 53.21861755 -22.81317139 52.24484253 C-22.37466858 51.23334137 -21.93616577 50.22184021 -21.484375 49.1796875 C-21.03153137 48.12524445 -20.57868774 47.07080139 -20.11212158 45.98440552 C-18.66258433 42.61264499 -17.20624781 39.24386684 -15.75 35.875 C-14.78473901 33.63038772 -13.81989077 31.38559788 -12.85546875 29.140625 C-11.91964078 26.96598659 -10.98345408 24.79150252 -10.046875 22.6171875 C-9.61646912 21.61783173 -9.18606323 20.61847595 -8.74261475 19.58883667 C-5.90394513 13.02354731 -2.97630019 6.50408739 0 0 Z " fill="#283669" transform="translate(27,37)"/>
<path d="M0 0 C0.89460938 -0.01611328 1.78921875 -0.03222656 2.7109375 -0.04882812 C8.95155859 -0.05336346 13.80193358 1.06510471 19.625 3.3125 C19.625 6.9425 19.625 10.5725 19.625 14.3125 C12.14965986 13.42559524 12.14965986 13.42559524 9.21484375 12.79296875 C1.36474192 11.33661502 -7.21797619 11.48326433 -14.375 15.3125 C-19.92745223 20.86495223 -21.27385118 26.65890606 -21.375 34.3125 C-20.78411849 40.17441978 -19.19995757 44.72255092 -15.375 49.3125 C-10.41540247 52.82050801 -6.17781376 53.49030095 -0.1875 53.875 C2.060625 54.019375 4.30875 54.16375 6.625 54.3125 C6.625 48.0425 6.625 41.7725 6.625 35.3125 C10.915 35.3125 15.205 35.3125 19.625 35.3125 C19.625 44.2225 19.625 53.1325 19.625 62.3125 C8.00247452 67.29358235 -4.0916344 67.32151238 -16.375 64.3125 C-24.57649525 60.85416715 -30.07832294 55.74246878 -33.6875 47.5625 C-36.79575938 38.33880347 -37.30748861 25.31109441 -33.4765625 16.19921875 C-28.46464416 7.61497563 -21.88073945 3.33797915 -12.44042969 0.72265625 C-8.32428921 -0.09473335 -4.18185187 -0.01493519 0 0 Z " fill="#263568" transform="translate(165.375,36.6875)"/>
<path d="M0 0 C4.29 0 8.58 0 13 0 C13 21.45 13 42.9 13 65 C8.71 65 4.42 65 0 65 C0 43.55 0 22.1 0 0 Z " fill="#18295F" transform="translate(195,37)"/>
<path d="M0 0 C15.18 0 30.36 0 46 0 C46 3.63 46 7.26 46 11 C41.91255255 11.81748949 38.71390095 12.11712749 34.60546875 12.09765625 C33.40341797 12.09443359 32.20136719 12.09121094 30.96289062 12.08789062 C29.71701172 12.07951172 28.47113281 12.07113281 27.1875 12.0625 C25.92228516 12.05798828 24.65707031 12.05347656 23.35351562 12.04882812 C20.2356289 12.03706251 17.11783867 12.02062272 14 12 C13.67 11.34 13.34 10.68 13 10 C23.56 10 34.12 10 45 10 C45 7.03 45 4.06 45 1 C30.48 1 15.96 1 1 1 C1 21.79 1 42.58 1 64 C15.52 64 30.04 64 45 64 C45 61.03 45 58.06 45 55 C43.77925781 55.0721875 42.55851562 55.144375 41.30078125 55.21875 C31.85247466 55.7581313 22.46651477 56.15295984 13 56 C11.40587716 52.81175432 11.89825265 49.37103338 11.9375 45.875 C11.94201172 45.12089844 11.94652344 44.36679688 11.95117188 43.58984375 C11.96296501 41.72652873 11.98090058 39.86325445 12 38 C12.33 38 12.66 38 13 38 C13 42.95 13 47.9 13 53 C14.56234375 52.98259766 14.56234375 52.98259766 16.15625 52.96484375 C26.14904562 52.88971877 36.03615326 53.24902366 46 54 C46 57.63 46 61.26 46 65 C30.82 65 15.64 65 0 65 C0 43.55 0 22.1 0 0 Z " fill="#A2A8BE" transform="translate(76,37)"/>
<path d="M0 0 C4.29 0 8.58 0 13 0 C13 21.45 13 42.9 13 65 C8.71 65 4.42 65 0 65 C0 43.55 0 22.1 0 0 Z M2 2 C2 22.13 2 42.26 2 63 C4.97 63 7.94 63 11 63 C11 42.87 11 22.74 11 2 C8.03 2 5.06 2 2 2 Z " fill="#48547F" transform="translate(195,37)"/>
<path d="M0 0 C1.03125 0.16371094 2.0625 0.32742188 3.125 0.49609375 C9.39649677 1.28003085 15.69083019 1.10580476 22 1.0625 C23.25167969 1.05798828 24.50335938 1.05347656 25.79296875 1.04882812 C28.86202941 1.03711415 31.93098907 1.02071073 35 1 C32.14016127 3.45007923 30.44380151 4.37379575 26.671875 4.29296875 C25.87265625 4.28330078 25.0734375 4.27363281 24.25 4.26367188 C23.425 4.23853516 22.6 4.21339844 21.75 4.1875 C20.90953125 4.17396484 20.0690625 4.16042969 19.203125 4.14648438 C17.13514062 4.11123464 15.06748729 4.0574302 13 4 C13 4.66 13 5.32 13 6 C12.01 6.33 11.02 6.66 10 7 C10.33 12.28 10.66 17.56 11 23 C10.01 23 9.02 23 8 23 C7.75765625 22.01 7.5153125 21.02 7.265625 20 C5.4771082 12.89001598 3.66548583 6.4146002 0 0 Z " fill="#9DBCE2" transform="translate(171,12)"/>
<path d="M0 0 C0.33 0 0.66 0 1 0 C1 4.95 1 9.9 1 15 C2.56234375 14.98259766 2.56234375 14.98259766 4.15625 14.96484375 C14.14904562 14.88971877 24.03615326 15.24902366 34 16 C34 19.63 34 23.26 34 27 C19.15 27 4.3 27 -11 27 C-11 26.67 -11 26.34 -11 26 C3.52 26 18.04 26 33 26 C33 23.03 33 20.06 33 17 C31.16888672 17.10828125 31.16888672 17.10828125 29.30078125 17.21875 C19.85247466 17.7581313 10.46651477 18.15295984 1 18 C-0.59412284 14.81175432 -0.10174735 11.37103338 -0.0625 7.875 C-0.05798828 7.12089844 -0.05347656 6.36679688 -0.04882812 5.58984375 C-0.03703499 3.72652873 -0.01909942 1.86325445 0 0 Z " fill="#707A9B" transform="translate(88,75)"/>
<path d="M0 0 C0.66 0 1.32 0 2 0 C3.625 2 3.625 2 5 4 C6.5778125 3.4740625 6.5778125 3.4740625 8.1875 2.9375 C11.7954681 2.05029473 13.52632489 1.94737118 17 3 C17 4.98 17 6.96 17 9 C12.82262526 10.59138085 9.46839215 11.21278058 5 11 C5 10.34 5 9.68 5 9 C4.34 9 3.68 9 3 9 C3 8.34 3 7.68 3 7 C1.68 7 0.36 7 -1 7 C-1 7.66 -1 8.32 -1 9 C-1.66 9 -2.32 9 -3 9 C-2.44271087 5.65626525 -1.64826111 2.96687001 0 0 Z M5 6 C6 8 6 8 6 8 Z " fill="#9EA0B8" transform="translate(216,106)"/>
<path d="M0 0 C1.98 0 3.96 0 6 0 C6.144375 0.804375 6.28875 1.60875 6.4375 2.4375 C6.74135249 4.92103706 6.74135249 4.92103706 8 6 C8.99 4.02 9.98 2.04 11 0 C11.99 0 12.98 0 14 0 C14.99 2.97 15.98 5.94 17 9 C16.01 9 15.02 9 14 9 C14 8.34 14 7.68 14 7 C13.443125 7.33 12.88625 7.66 12.3125 8 C9.69715478 9.1309601 7.8193354 9.15662974 5 9 C4.67 8.01 4.34 7.02 4 6 C3.34 6 2.68 6 2 6 C2 6.99 2 7.98 2 9 C1.34 9 0.68 9 0 9 C0 6.03 0 3.06 0 0 Z " fill="#5E5F84" transform="translate(144,106)"/>
<path d="M0 0 C1.98 0 3.96 0 6 0 C6 0.66 6 1.32 6 2 C6.66 2 7.32 2 8 2 C8 1.34 8 0.68 8 0 C9.99954746 -0.04254356 12.00041636 -0.04080783 14 0 C15 1 15 1 15.125 4.5 C15 8 15 8 14 9 C11.0625 9.25 11.0625 9.25 8 9 C7.34 8.01 6.68 7.02 6 6 C4.68 6 3.36 6 2 6 C2 6.99 2 7.98 2 9 C1.34 9 0.68 9 0 9 C0 6.03 0 3.06 0 0 Z M10 2 C10 3.65 10 5.3 10 7 C10.99 6.67 11.98 6.34 13 6 C12.67 4.68 12.34 3.36 12 2 C11.34 2 10.68 2 10 2 Z " fill="#686A8F" transform="translate(179,106)"/>
<path d="M0 0 C0.99 0 1.98 0 3 0 C3 2.31 3 4.62 3 7 C4.32 7 5.64 7 7 7 C7 4.69 7 2.38 7 0 C9.31 0 11.62 0 14 0 C13.814375 0.928125 13.62875 1.85625 13.4375 2.8125 C12.75876119 6.01343771 12.75876119 6.01343771 14 9 C9.38 9 4.76 9 0 9 C0 6.03 0 3.06 0 0 Z M10 2 C11 4 11 4 11 4 Z " fill="#9C9DB6" transform="translate(104,106)"/>
<path d="M0 0 C4.62 0 9.24 0 14 0 C14 0.99 14 1.98 14 3 C13.01 3 12.02 3 11 3 C11 4.98 11 6.96 11 9 C10.34 9 9.68 9 9 9 C9 7.02 9 5.04 9 3 C6.36 3 3.72 3 1 3 C1 4.32 1 5.64 1 7 C2.65 6.67 4.3 6.34 6 6 C5.67 6.99 5.34 7.98 5 9 C3.35 9 1.7 9 0 9 C-1.125 7.3125 -1.125 7.3125 -2 5 C-1.34 3.35 -0.68 1.7 0 0 Z " fill="#8385A4" transform="translate(120,106)"/>
<path d="M0 0 C5.09145235 1.87992087 9.72322392 4.48239564 14.47265625 7.078125 C17.92021536 8.94468226 21.31234851 10.6384056 25 12 C23.68 12.99 22.36 13.98 21 15 C13.90653715 11.72493311 6.9762487 8.09490293 1 3 C0.67 2.01 0.34 1.02 0 0 Z " fill="#AFC8E6" transform="translate(207,118)"/>
<path d="M0 0 C2.31 0 4.62 0 7 0 C8 6.75 8 6.75 8 9 C7.01 9 6.02 9 5 9 C4.67 8.34 4.34 7.68 4 7 C3.67 7.66 3.34 8.32 3 9 C2.01 9 1.02 9 0 9 C0 6.03 0 3.06 0 0 Z " fill="#A8ABC1" transform="translate(195,106)"/>
<path d="M0 0 C1.4540625 0.0309375 1.4540625 0.0309375 2.9375 0.0625 C3.81640625 6.21484375 3.81640625 6.21484375 3.9375 8.0625 C2.9375 9.0625 2.9375 9.0625 -0.625 9.125 C-1.759375 9.104375 -2.89375 9.08375 -4.0625 9.0625 C-4.16015625 2.91015625 -4.16015625 2.91015625 -4.0625 1.0625 C-3.0625 0.0625 -3.0625 0.0625 0 0 Z " fill="#7C7D9C" transform="translate(92.0625,105.9375)"/>
<path d="M0 0 C1.9375 0.375 1.9375 0.375 4 1 C4.33 1.66 4.66 2.32 5 3 C5.33 2.01 5.66 1.02 6 0 C6.66 0 7.32 0 8 0 C8 2.97 8 5.94 8 9 C7.01 9 6.02 9 5 9 C4.67 8.34 4.34 7.68 4 7 C3.67 7.66 3.34 8.32 3 9 C2.34 9 1.68 9 1 9 C-0.4783226 6.04335481 -0.06032783 3.25770263 0 0 Z " fill="#67688D" transform="translate(161,106)"/>
<path d="M0 0 C1.4540625 0.0309375 1.4540625 0.0309375 2.9375 0.0625 C3.81640625 6.21484375 3.81640625 6.21484375 3.9375 8.0625 C2.9375 9.0625 2.9375 9.0625 -0.625 9.125 C-1.759375 9.104375 -2.89375 9.08375 -4.0625 9.0625 C-3.876875 8.485 -3.69125 7.9075 -3.5 7.3125 C-3.02067621 4.84740621 -3.40523163 3.44509782 -4.0625 1.0625 C-3.0625 0.0625 -3.0625 0.0625 0 0 Z " fill="#6F7192" transform="translate(174.0625,105.9375)"/>
<path d="M0 0 C1.98 0 3.96 0 6 0 C6.79953138 3.28696233 7.09658936 4.71023192 6 8 C5.34 8 4.68 8 4 8 C4 7.34 4 6.68 4 6 C3.34 6 2.68 6 2 6 C2 6.99 2 7.98 2 9 C1.34 9 0.68 9 0 9 C0 6.03 0 3.06 0 0 Z " fill="#6F7198" transform="translate(144,106)"/>
<path d="M0 0 C1.98 0 3.96 0 6 0 C6 3 6 6 6 9 C4.02 9 2.04 9 0 9 C0 6.03 0 3.06 0 0 Z M2 2 C3 4 3 4 3 4 Z " fill="#65668E" transform="translate(97,106)"/>
<path d="M0 0 C0.66 0.33 1.32 0.66 2 1 C2.31241455 3.71446979 2.51336592 6.33909361 2.625 9.0625 C2.66367188 9.82111328 2.70234375 10.57972656 2.7421875 11.36132812 C2.83673562 13.24047195 2.91946756 15.12020336 3 17 C2.01 17 1.02 17 0 17 C-0.66 13.04 -1.32 9.08 -2 5 C-1.34 5 -0.68 5 0 5 C0 3.35 0 1.7 0 0 Z " fill="#B1C9E7" transform="translate(179,18)"/>
<path d="M0 0 C0.66 0.33 1.32 0.66 2 1 C-1.86364295 5.48717034 -5.74790208 9.87675353 -10 14 C-10.33 13.34 -10.66 12.68 -11 12 C-7.72469104 7.36279281 -4.69564393 3.31457218 0 0 Z " fill="#454F7B" transform="translate(143,41)"/>
<path d="M0 0 C2.64 0 5.28 0 8 0 C8 0.99 8 1.98 8 3 C7.01 3.495 7.01 3.495 6 4 C6 5.65 6 7.3 6 9 C5.01 9 4.02 9 3 9 C3 7.02 3 5.04 3 3 C2.01 3 1.02 3 0 3 C0 2.01 0 1.02 0 0 Z " fill="#8283A4" transform="translate(135,106)"/>
<path d="M0 0 C1.98 0 3.96 0 6 0 C6 1.98 6 3.96 6 6 C4.68 6 3.36 6 2 6 C2 6.99 2 7.98 2 9 C1.34 9 0.68 9 0 9 C0 6.03 0 3.06 0 0 Z " fill="#555681" transform="translate(179,106)"/>
<path d="M0 0 C2.31 0.33 4.62 0.66 7 1 C7 2.98 7 4.96 7 7 C5.02 7.33 3.04 7.66 1 8 C0 1.125 0 1.125 0 0 Z " fill="#9E9FB9" transform="translate(226,108)"/>
<path d="M0 0 C0.99 0 1.98 0 3 0 C3.99 2.97 4.98 5.94 6 9 C5.2575 8.62875 4.515 8.2575 3.75 7.875 C0.71992804 6.55890685 0.71992804 6.55890685 -3 9 C-2.01 6.03 -1.02 3.06 0 0 Z M1 3 C2 5 2 5 2 5 Z " fill="#8688A6" transform="translate(80,106)"/>
<path d="M0 0 C1.65 0 3.3 0 5 0 C5 0.66 5 1.32 5 2 C3.68 2 2.36 2 1 2 C1 3.65 1 5.3 1 7 C2.65 6.67 4.3 6.34 6 6 C5.67 6.99 5.34 7.98 5 9 C3.35 9 1.7 9 0 9 C-1.125 7.3125 -1.125 7.3125 -2 5 C-1.125 2.25 -1.125 2.25 0 0 Z " fill="#595A84" transform="translate(120,106)"/>
<path d="M0 0 C1.2065625 0.0309375 1.2065625 0.0309375 2.4375 0.0625 C2.4375 2.7025 2.4375 5.3425 2.4375 8.0625 C0.4575 8.0625 -1.5225 8.0625 -3.5625 8.0625 C-3.5625 7.4025 -3.5625 6.7425 -3.5625 6.0625 C-2.2425 6.0625 -0.9225 6.0625 0.4375 6.0625 C-0.5525 5.7325 -1.5425 5.4025 -2.5625 5.0625 C-3.3125 3.0625 -3.3125 3.0625 -3.5625 1.0625 C-2.5625 0.0625 -2.5625 0.0625 0 0 Z " fill="#797C9F" transform="translate(224.5625,108.9375)"/>
<path d="M0 0 C2.64 0 5.28 0 8 0 C8 0.99 8 1.98 8 3 C7.01 3 6.02 3 5 3 C5 4.98 5 6.96 5 9 C4.34 9 3.68 9 3 9 C3 7.02 3 5.04 3 3 C2.01 2.67 1.02 2.34 0 2 C0 1.34 0 0.68 0 0 Z " fill="#6C6D93" transform="translate(203,106)"/>
<path d="M0 0 C1.65 0 3.3 0 5 0 C4.01 0.33 3.02 0.66 2 1 C2 1.66 2 2.32 2 3 C2.99 3 3.98 3 5 3 C5.33 4.65 5.66 6.3 6 8 C4.02 8 2.04 8 0 8 C0 5.36 0 2.72 0 0 Z " fill="#464674" transform="translate(112,107)"/>
<path d="M0 0 C1.98 0 3.96 0 6 0 C6.82638376 2.89234315 7 4.88742431 7 8 C6.01 8 5.02 8 4 8 C4.33 5.69 4.66 3.38 5 1 C3.68 1 2.36 1 1 1 C1 2.98 1 4.96 1 7 C0.67 7 0.34 7 0 7 C0 4.69 0 2.38 0 0 Z " fill="#3D3F68" transform="translate(196,107)"/>
<path d="M0 0 C1.98 0 3.96 0 6 0 C6 1.98 6 3.96 6 6 C5.34 6 4.68 6 4 6 C4 4.68 4 3.36 4 2 C3.34 2 2.68 2 2 2 C2 3.32 2 4.64 2 6 C1.34 6 0.68 6 0 6 C0 4.02 0 2.04 0 0 Z " fill="#8486A7" transform="translate(234,109)"/>
<path d="M0 0 C-3.17596839 1.88372214 -5.31969081 2.20001885 -8.984375 1.9765625 C-9.91894531 1.925 -10.85351562 1.8734375 -11.81640625 1.8203125 C-12.78449219 1.75585938 -13.75257813 1.69140625 -14.75 1.625 C-15.73355469 1.56828125 -16.71710938 1.5115625 -17.73046875 1.453125 C-20.154411 1.31192448 -22.57727459 1.16054205 -25 1 C-25 0.67 -25 0.34 -25 0 C-21.58382503 -0.1972935 -18.16705407 -0.38112295 -14.75 -0.5625 C-13.29787109 -0.64661133 -13.29787109 -0.64661133 -11.81640625 -0.73242188 C-10.88183594 -0.78076172 -9.94726562 -0.82910156 -8.984375 -0.87890625 C-8.12553711 -0.9260376 -7.26669922 -0.97316895 -6.38183594 -1.02172852 C-4.07335735 -1.00066921 -2.20243733 -0.66206871 0 0 Z " fill="#D3E1F1" transform="translate(206,14)"/>
<path d="M0 0 C0.66 0 1.32 0 2 0 C2.33 0.66 2.66 1.32 3 2 C3.33 1.34 3.66 0.68 4 0 C4.66 0 5.32 0 6 0 C4.125 5.75 4.125 5.75 3 8 C2.01 8 1.02 8 0 8 C0.33 7.01 0.66 6.02 1 5 C0.60602665 2.36195411 0.60602665 2.36195411 0 0 Z " fill="#7D7FA0" transform="translate(247,109)"/>
<path d="M0 0 C-0.33 1.32 -0.66 2.64 -1 4 C-3.31 4 -5.62 4 -8 4 C-8 3.01 -8 2.02 -8 1 C-5.29120665 -0.35439668 -2.99066732 -0.06501451 0 0 Z " fill="#8081A0" transform="translate(178,111)"/>
<path d="M0 0 C0.66 0 1.32 0 2 0 C1.35550393 3.01217112 0.34977818 5.51655836 -1.0625 8.25 C-1.42472656 8.95640625 -1.78695313 9.6628125 -2.16015625 10.390625 C-2.43730469 10.92171875 -2.71445312 11.4528125 -3 12 C-3.33 12 -3.66 12 -4 12 C-4.20086443 8.28400809 -4.1519437 7.22791555 -2 4 C-2.33 3.34 -2.66 2.68 -3 2 C-2.01 2 -1.02 2 0 2 C0 1.34 0 0.68 0 0 Z " fill="#B0C8E6" transform="translate(298,8)"/>
<path d="M0 0 C0.99 0.66 1.98 1.32 3 2 C2.67 2.33 2.34 2.66 2 3 C2.66 3.66 3.32 4.32 4 5 C0.86501708 6.85776765 -1.37471432 7.20140476 -5 7 C-3.39911152 4.59866729 -1.74271938 2.297221 0 0 Z " fill="#8184A0" transform="translate(154,108)"/>
<path d="M0 0 C1.65 0 3.3 0 5 0 C5 0.66 5 1.32 5 2 C4.01 2 3.02 2 2 2 C2 2.66 2 3.32 2 4 C2.99 4 3.98 4 5 4 C5 4.66 5 5.32 5 6 C3.35 6 1.7 6 0 6 C0 4.02 0 2.04 0 0 Z " fill="#898BAA" transform="translate(241,109)"/>
<path d="M0 0 C1.98 0 3.96 0 6 0 C5.67 2.31 5.34 4.62 5 7 C4.34 7 3.68 7 3 7 C3 6.34 3 5.68 3 5 C2.34 5 1.68 5 1 5 C1 4.34 1 3.68 1 3 C1.99 3 2.98 3 4 3 C4 2.34 4 1.68 4 1 C2.68 0.67 1.36 0.34 0 0 Z " fill="#333566" transform="translate(145,107)"/>
<path d="M0 0 C2.64465038 3.1254959 3.84414715 6.08788267 5 10 C4.34 10.66 3.68 11.32 3 12 C-0.42857143 4.71428571 -0.42857143 4.71428571 0 0 Z " fill="#49517D" transform="translate(50,86)"/>
<path d="M0 0 C2.22825644 2.22825644 2.69239369 3.65761628 3.625 6.625 C3.88539062 7.44226562 4.14578125 8.25953125 4.4140625 9.1015625 C4.60742188 9.72804688 4.80078125 10.35453125 5 11 C4.01 10.67 3.02 10.34 2 10 C1.05078125 7.93359375 1.05078125 7.93359375 0.3125 5.4375 C0.06113281 4.61121094 -0.19023438 3.78492188 -0.44921875 2.93359375 C-0.63097656 2.29550781 -0.81273437 1.65742187 -1 1 C-0.67 0.67 -0.34 0.34 0 0 Z " fill="#4F5681" transform="translate(44,45)"/>
<path d="M0 0 C0.66 0.33 1.32 0.66 2 1 C2.36923077 8.50769231 2.36923077 8.50769231 0.5 11 C0.005 11.33 -0.49 11.66 -1 12 C-1.33 9.69 -1.66 7.38 -2 5 C-1.34 5 -0.68 5 0 5 C0 3.35 0 1.7 0 0 Z " fill="#C4D6EC" transform="translate(179,18)"/>
<path d="M0 0 C0.66 0 1.32 0 2 0 C1.67 1.32 1.34 2.64 1 4 C-1.31 4 -3.62 4 -6 4 C-6 3.01 -6 2.02 -6 1 C-3.03 1.495 -3.03 1.495 0 2 C0 1.34 0 0.68 0 0 Z " fill="#6D6E91" transform="translate(94,111)"/>
<path d="M0 0 C-3.54950034 1.16306443 -6.55823948 0.92365049 -10.25 0.5625 C-11.32765625 0.46066406 -12.4053125 0.35882813 -13.515625 0.25390625 C-14.33546875 0.17011719 -15.1553125 0.08632813 -16 0 C-16 -0.33 -16 -0.66 -16 -1 C-14.27277272 -1.22384382 -12.54303993 -1.42839969 -10.8125 -1.625 C-9.36810547 -1.79902344 -9.36810547 -1.79902344 -7.89453125 -1.9765625 C-4.75924677 -2.00194942 -2.80513465 -1.34359283 0 0 Z " fill="#667195" transform="translate(257,48)"/>
<path d="M0 0 C2 3 2 3 1.625 5.6875 C1.41875 6.450625 1.2125 7.21375 1 8 C0.01 8 -0.98 8 -2 8 C-1.125 2.25 -1.125 2.25 0 0 Z " fill="#404A78" transform="translate(29,76)"/>
<path d="M0 0 C0.66 0 1.32 0 2 0 C2.33 1.98 2.66 3.96 3 6 C1.68 6 0.36 6 -1 6 C-0.67 4.02 -0.34 2.04 0 0 Z " fill="#696B91" transform="translate(216,106)"/>
</svg>
